<?xml version="1.0" encoding="iso-8859-1"?>
<!-- Generator: Adobe Illustrator 17.1.0, SVG Export Plug-In . SVG Version: 6.00 Build 0)  -->
<!DOCTYPE svg PUBLIC "-//W3C//DTD SVG 1.1//EN" "http://www.w3.org/Graphics/SVG/1.1/DTD/svg11.dtd">
<svg version="1.1" id="Capa_1" xmlns="http://www.w3.org/2000/svg" xmlns:xlink="http://www.w3.org/1999/xlink" x="0px" y="0px"
	 viewBox="0 0 256 256" style="enable-background:new 0 0 256 256;" xml:space="preserve">
<g>
	<path d="M250.6,72.508c-0.912,0-1.776,0.229-2.613,0.662l-41.34,21.414c-2.146,1.111-3.648,3.482-3.648,5.899v54.992
		c0,2.426,1.54,4.799,3.694,5.904l41.324,21.211c0.83,0.426,1.769,0.651,2.675,0.651c1.633,0,3.059-0.714,4.102-1.96
		c0.847-1.011,1.205-2.318,1.205-3.682V78.147C256,74.985,253.695,72.508,250.6,72.508z"/>
	<path d="M240.926,202.64l-42.145-21.656c-0.874-0.448-1.868-0.685-2.875-0.685c-1.707,0-3.36,0.672-4.54,1.849l-11.684,11.685
		c-2.066,2.065-2.414,5.345-0.828,7.797l25.022,38.703c1.083,1.675,2.902,2.674,4.867,2.674c1.547,0,3.011-0.613,4.116-1.722
		l29.499-29.499c1.31-1.309,1.923-3.157,1.643-4.944C243.72,205.055,242.569,203.482,240.926,202.64z"/>
	<path d="M179.733,62.221l11.601,11.599c1.174,1.174,2.826,1.848,4.534,1.848c1.016,0,2.017-0.241,2.898-0.697l42.001-21.788
		c1.664-0.862,2.78-2.396,3.061-4.207c0.281-1.812-0.318-3.61-1.645-4.936l-29.075-29.075c-1.11-1.11-2.573-1.722-4.119-1.722
		c-1.951,0-3.766,0.988-4.855,2.648l-25.206,38.507C177.32,56.851,177.656,60.138,179.733,62.221z"/>
	<path d="M155.192,71h-53.718c-1.865,0-3.924,0.644-5.242,1.963l-19.77,19.373C75.144,93.654,74,95.608,74,97.474v61.053
		c0,1.865,1.144,3.924,2.463,5.242l19.624,19.27c1.319,1.318,3.522,1.962,5.388,1.962h53.718c1.865,0,3.923-0.644,5.242-1.963
		l19.436-19.373c1.319-1.318,2.13-3.272,2.13-5.138V97.474c0-1.865-0.811-3.924-2.13-5.242l-19.457-19.269
		C159.095,71.644,157.058,71,155.192,71z"/>
	<path d="M53,161.296v-53.764c0-2.426-1.206-4.799-3.36-5.904L8.479,80.415c-0.829-0.425-1.898-0.649-2.803-0.649
		C2.579,79.766,0,82.244,0,85.407v98.225c0,3.162,2.638,5.64,5.733,5.641c0.912,0,1.942-0.229,2.779-0.662l41.091-21.414
		C51.749,166.085,53,163.714,53,161.296z"/>
	<path d="M158.911,209.88c-1.228-1.898-3.481-2.88-5.741-2.88h-46.732c-2.247,0-4.495,0.97-5.731,2.854l-23.728,36.125
		c-1.148,1.751-1.269,3.659-0.313,5.429c0.956,1.771,2.852,2.591,4.945,2.591h96.077c2.088,0,3.979-0.876,4.938-2.639
		c0.959-1.762,0.851-3.714-0.282-5.466L158.911,209.88z"/>
	<path d="M78.745,195.593l-9.606-9.607c-1.174-1.174-2.826-1.848-4.534-1.848c-1.016,0-2.017,0.241-2.898,0.697l-42.009,21.791
		c-1.662,0.864-2.775,2.398-3.055,4.208c-0.278,1.81,0.321,3.607,1.646,4.932l27.082,27.081c1.11,1.11,2.573,1.723,4.119,1.723
		c0.001,0,0.001,0,0.001,0c1.953,0,3.768-0.99,4.854-2.649l25.211-38.513C81.16,200.954,80.819,197.667,78.745,195.593z"/>
	<path d="M11.111,57.989l42.146,21.656c0.874,0.448,1.868,0.685,2.876,0.685c1.71,0,3.364-0.674,4.538-1.848l13.086-13.085
		c2.062-2.066,2.407-5.345,0.823-7.793L49.558,18.9c-1.083-1.675-2.902-2.674-4.867-2.674c-1.547,0-3.011,0.612-4.116,1.722
		L9.679,48.843C8.37,50.151,7.756,52,8.036,53.787C8.317,55.574,9.468,57.146,11.111,57.989z"/>
	<path d="M92.428,46.114C93.654,48.016,95.909,49,98.173,49h55.055c2.247,0,4.495-0.971,5.731-2.854l23.728-36.125
		c1.148-1.751,1.268-3.659,0.313-5.43C182.043,2.82,180.148,2,178.054,2h-104.4c-2.088,0-3.979,0.876-4.938,2.639
		c-0.959,1.762-0.851,3.714,0.282,5.466L92.428,46.114z"/>
</g>
<g>
</g>
<g>
</g>
<g>
</g>
<g>
</g>
<g>
</g>
<g>
</g>
<g>
</g>
<g>
</g>
<g>
</g>
<g>
</g>
<g>
</g>
<g>
</g>
<g>
</g>
<g>
</g>
<g>
</g>
</svg>
