<?xml version="1.0" encoding="iso-8859-1"?>
<!-- Generator: Adobe Illustrator 17.1.0, SVG Export Plug-In . SVG Version: 6.00 Build 0)  -->
<!DOCTYPE svg PUBLIC "-//W3C//DTD SVG 1.1//EN" "http://www.w3.org/Graphics/SVG/1.1/DTD/svg11.dtd">
<svg version="1.1" id="Capa_1" xmlns="http://www.w3.org/2000/svg" xmlns:xlink="http://www.w3.org/1999/xlink" x="0px" y="0px"
	 viewBox="0 0 294 294" style="enable-background:new 0 0 294 294;" xml:space="preserve">
<g>
	<path d="M195,191.197v-88.395c0-2.323-1.08-4.666-3.094-5.83l-43.247-25.048c-1.984-1.143-4.665-1.146-6.659,0.003L98.491,96.974
		C96.48,98.137,95,100.479,95,102.803v88.395c0,2.323,1.514,4.666,3.527,5.83l43.464,25.048c0.992,0.571,2.195,0.873,3.402,0.873
		s2.389-0.302,3.386-0.876l43.118-25.046C193.91,195.863,195,193.52,195,191.197z"/>
	<path d="M245.461,84.792c-0.912,0-1.845,0.229-2.68,0.661l-23.093,11.92c-2.146,1.111-3.687,3.482-3.687,5.899v88.372
		c0,2.417,1.536,4.788,3.681,5.899l23.036,11.916c0.836,0.435,1.784,0.665,2.699,0.665c1.636,0,3.204-0.717,4.246-1.967
		c0.842-1.01,1.337-2.314,1.337-3.673V90.432C251,87.27,248.556,84.792,245.461,84.792z"/>
	<path d="M49.039,208c0.001,0,0.095,0,0.095,0c0.911,0,1.881-0.15,2.716-0.584l18.874-9.909c2.149-1.11,3.276-3.443,3.276-5.862
		v-88.372c0-2.419-1.103-4.791-3.248-5.898l-19.026-9.952c-0.834-0.433-2.026-0.661-2.937-0.661c-3.095,0-5.789,2.478-5.789,5.641
		v110.114C43,205.678,45.944,208,49.039,208z"/>
	<path d="M248.808,27.22L224.042,2.318C222.723,0.999,220.655,0,218.79,0h-57.035C158.446,0,155,2.984,155,6.293V48.22
		c0,2.328,1.732,4.672,3.744,5.83l43.969,25.277c1.005,0.579,2.282,0.885,3.513,0.885c1.114,0,2.243-0.256,3.178-0.739
		l37.964-19.657c2.146-1.111,3.632-3.482,3.632-5.899V32.462C251,30.6,250.129,28.544,248.808,27.22z"/>
	<path d="M46.941,61.785l34.3,17.688c0.934,0.483,2.104,0.739,3.217,0.739c1.236,0,2.466-0.309,3.468-0.889l43.748-25.275
		c2.009-1.164,3.326-3.506,3.326-5.827V6.293C135,2.984,132.42,0,129.111,0H75.877c-1.865,0-3.924,0.999-5.242,2.318L45.521,27.15
		C44.205,28.471,43,30.6,43,32.462v23.424C43,58.303,44.795,60.674,46.941,61.785z"/>
	<path d="M247.393,235.102l-38.769-20.092c-1.965-1.019-4.635-0.958-6.559,0.149l-43.32,24.791
		c-2.012,1.163-3.744,3.506-3.744,5.829v41.928c0,3.309,3.446,6.293,6.755,6.293h57.035c1.865,0,3.924-0.999,5.242-2.318
		l24.78-24.832c1.316-1.32,2.187-3.449,2.187-5.312v-20.537C251,238.584,249.538,236.213,247.393,235.102z"/>
	<path d="M131.69,239.949l-42.912-24.791c-1.915-1.103-4.57-1.167-6.539-0.148l-35.305,18.122c-2.146,1.111-3.935,3.482-3.935,5.899
		v22.507c0,1.862,1.205,3.918,2.526,5.242l24.932,24.901c1.318,1.319,3.554,2.318,5.419,2.318h53.234
		c3.309,0,5.889-2.984,5.889-6.293v-41.928C135,243.458,133.705,241.116,131.69,239.949z"/>
</g>
<g>
</g>
<g>
</g>
<g>
</g>
<g>
</g>
<g>
</g>
<g>
</g>
<g>
</g>
<g>
</g>
<g>
</g>
<g>
</g>
<g>
</g>
<g>
</g>
<g>
</g>
<g>
</g>
<g>
</g>
</svg>
