<?xml version="1.0" encoding="iso-8859-1"?>
<!-- Generator: Adobe Illustrator 17.1.0, SVG Export Plug-In . SVG Version: 6.00 Build 0)  -->
<!DOCTYPE svg PUBLIC "-//W3C//DTD SVG 1.1//EN" "http://www.w3.org/Graphics/SVG/1.1/DTD/svg11.dtd">
<svg version="1.1" id="Capa_1" xmlns="http://www.w3.org/2000/svg" xmlns:xlink="http://www.w3.org/1999/xlink" x="0px" y="0px"
	 viewBox="0 0 288 288" style="enable-background:new 0 0 288 288;" xml:space="preserve">
<g>
	<path d="M201,168.724v-49.447c0-2.883-1.677-5.68-4.18-7.129l-50.531-29.154c-2.446-1.415-5.827-1.41-8.255-0.004l-50.713,29.159
		c-2.499,1.444-4.321,4.242-4.321,7.128v49.447c0,2.886,1.813,5.684,4.314,7.129l50.596,29.154c1.223,0.707,2.698,1.082,4.174,1.082
		c1.475,0,2.925-0.375,4.14-1.078l50.591-29.162C199.31,174.403,201,171.606,201,168.724z"/>
	<path d="M258,97.812c-1.153,0-2.307,0.287-3.352,0.83l-27.078,13.947c-2.631,1.362-4.571,4.269-4.571,7.231v49.422
		c0,2.963,1.945,5.869,4.574,7.23l27.002,13.827c1.046,0.54,2.291,0.7,3.439,0.7c0.001,0,0.002,0,0.002,0
		c2.08,0,4.017-0.787,5.346-2.378c1.067-1.278,1.637-2.8,1.637-4.512v-79.159C265,100.947,261.936,97.812,258,97.812z"/>
	<path d="M30.5,189c0.001,0,0.075,0,0.075,0c1.15,0,2.349-0.302,3.396-0.845l22.569-11.674c2.631-1.362,4.46-4.276,4.46-7.239
		V119.82c0-2.963-1.811-5.869-4.44-7.23l-22.532-11.669c-1.046-0.542-2.533-0.829-3.684-0.829c-3.936,0-7.344,3.137-7.344,7.14
		v74.599C23,185.834,26.564,189,30.5,189z"/>
	<path d="M262.409,31.522L233.534,2.627C231.925,1.014,229.517,0,227.235,0h-66.36C156.739,0,153,3.387,153,7.523v48.865
		c0,2.886,1.803,5.684,4.304,7.129l51.064,29.413c1.232,0.71,2.763,1.071,4.257,1.071c0.001,0,0.003,0,0.003,0
		c1.353,0,2.674-0.298,3.821-0.893l44.172-22.9c2.63-1.362,4.379-4.261,4.379-7.224V37.825
		C265,35.548,264.019,33.133,262.409,31.522z"/>
	<path d="M27.711,72.494l39.95,20.629c1.146,0.594,2.544,0.907,3.897,0.907c1.494,0,2.976-0.376,4.215-1.09l51.03-29.42
		c2.505-1.442,4.197-4.242,4.197-7.133V7.523C131,3.387,127.527,0,123.392,0h-61.96c-2.281,0-4.699,1.014-6.304,2.623L25.925,31.517
		C24.314,33.127,23,35.548,23,37.825v27.439C23,68.227,25.082,71.133,27.711,72.494z"/>
	<path d="M260.623,218.848l-45.153-23.411c-2.413-1.251-5.644-1.174-7.989,0.183l-50.172,28.86
		c-2.505,1.442-4.308,4.242-4.308,7.133v48.865c0,4.136,3.739,7.522,7.875,7.522h66.36c2.281,0,4.699-1.014,6.304-2.622
		l28.87-28.895c1.61-1.61,2.591-4.031,2.591-6.308v-24.097C265,223.115,263.251,220.209,260.623,218.848z"/>
	<path d="M126.83,224.483l-50.014-28.86c-2.349-1.361-5.597-1.44-8.015-0.186l-41.082,21.129c-2.63,1.362-4.719,4.269-4.719,7.231
		v26.377c0,2.277,1.314,4.692,2.925,6.303l29.041,28.895c1.609,1.613,4.185,2.627,6.466,2.627h61.96
		c4.136,0,7.608-3.387,7.608-7.522v-48.865C131,228.722,129.328,225.922,126.83,224.483z"/>
</g>
<g>
</g>
<g>
</g>
<g>
</g>
<g>
</g>
<g>
</g>
<g>
</g>
<g>
</g>
<g>
</g>
<g>
</g>
<g>
</g>
<g>
</g>
<g>
</g>
<g>
</g>
<g>
</g>
<g>
</g>
</svg>
