<?xml version="1.0" encoding="iso-8859-1"?>
<!-- Generator: Adobe Illustrator 19.0.0, SVG Export Plug-In . SVG Version: 6.00 Build 0)  -->
<svg version="1.1" id="Capa_1" xmlns="http://www.w3.org/2000/svg" xmlns:xlink="http://www.w3.org/1999/xlink" x="0px" y="0px"
	 viewBox="0 0 512 512" style="enable-background:new 0 0 512 512;" xml:space="preserve">
<g>
	<g>
		<polygon points="256,91.441 179.208,198.814 179.208,228.227 200.808,228.227 200.808,272.893 311.192,272.893 311.192,228.227 
			332.792,228.227 332.792,198.814 		"/>
	</g>
</g>
<g>
	<g>
		<path d="M512,147.559V117.08L428.342,0.107L344.684,117.08v30.479h13.333v155.333H153.983V147.559h13.333V117.08L83.658,0.107
			L0,117.081v30.479h13.333v334.333H0v30h512v-30h-13.333V147.559H512z M98.658,330.56h-30v-42.667h30V330.56z M98.658,245.227h-30
			V202.56h30V245.227z M324.333,481.893h-30v-66c0-21.137-17.196-38.333-38.333-38.333s-38.333,17.196-38.333,38.333v66h-30v-66
			c0-37.679,30.654-68.333,68.333-68.333s68.333,30.654,68.333,68.333V481.893z M443.342,330.56h-30v-42.667h30V330.56z
			 M443.342,245.227h-30V202.56h30V245.227z"/>
	</g>
</g>
<g>
</g>
<g>
</g>
<g>
</g>
<g>
</g>
<g>
</g>
<g>
</g>
<g>
</g>
<g>
</g>
<g>
</g>
<g>
</g>
<g>
</g>
<g>
</g>
<g>
</g>
<g>
</g>
<g>
</g>
</svg>
