<?xml version="1.0" encoding="iso-8859-1"?>
<!-- Generator: Adobe Illustrator 19.0.0, SVG Export Plug-In . SVG Version: 6.00 Build 0)  -->
<svg version="1.1" id="Capa_1" xmlns="http://www.w3.org/2000/svg" xmlns:xlink="http://www.w3.org/1999/xlink" x="0px" y="0px"
	 viewBox="0 0 511.999 511.999" style="enable-background:new 0 0 511.999 511.999;" xml:space="preserve">
<g>
	<g>
		<path d="M297.942,180.082c-8.984-15.509-22.005-29.601-36.336-39.497c-72.499,61.448-245.841,78.091-247.675,78.261
			C6.04,219.569,0,226.189,0,234.114v123.815c14.581-8.322,37.581-20.747,66.872-34.267
			c47.231-21.801,120.304-50.565,200.208-63.788c24.877-4.116,39.136-14.866,42.381-31.948
			C312.003,214.545,307.805,197.107,297.942,180.082z"/>
	</g>
</g>
<g>
	<g>
		<path d="M181.782,311.986c-70.212,22.038-128.388,51.439-159.199,68.486H247.61L181.782,311.986z"/>
	</g>
</g>
<g>
	<g>
		<path d="M500.97,244.951c-0.534-0.156-53.985-16.046-101.164-49.325c-42.926-30.278-84.498-54.605-101.18-64.1
			c9.997,9.778,18.808,21.026,25.851,33.184c13.696,23.645,19.063,48.128,15.109,68.938c-3.318,17.47-16.501,48.041-67.5,56.48
			c-19.449,3.218-38.525,7.414-56.999,12.259l75.055,78.085h206.525c8.468,0,15.333-6.865,15.333-15.333V259.669
			C512,252.861,507.502,246.866,500.97,244.951z"/>
	</g>
</g>
<g>
</g>
<g>
</g>
<g>
</g>
<g>
</g>
<g>
</g>
<g>
</g>
<g>
</g>
<g>
</g>
<g>
</g>
<g>
</g>
<g>
</g>
<g>
</g>
<g>
</g>
<g>
</g>
<g>
</g>
</svg>
