<svg height="512" viewBox="0 0 56 56" width="512" xmlns="http://www.w3.org/2000/svg"><g id="024---Dungeon"><path id="Shape" d="m12.964 6.265-2.7 2.7c-.35354105.35538123-.35354105.92961877 0 1.285l3.675 3.344 3.672-3.965-3.362-3.364c-.3553812-.35354105-.9296188-.35354105-1.285 0z"/><path id="Shape" d="m19.252 8.44 4.435-1.648-.402-3.915-6.598 2.997z"/><path id="Shape" d="m6 39c0 .5522847.44771525 1 1 1h5v-6h-5c-.55228475 0-1 .4477153-1 1z"/><path id="Shape" d="m12 47h-8c-2.209139 0-4 1.790861-4 4v5h12z"/><path id="Shape" d="m12.18 19 .729-3.641-2.369-2.157-2.112 5.798z"/><path id="Shape" d="m7 21c-.55228475 0-1 .4477153-1 1v4c0 .5522847.44771525 1 1 1h5v-6c-1.177 0-5.261 0-5 0z"/><path id="Rectangle-path" d="m8 29h4v3h-4z"/><path id="Rectangle-path" d="m8 42h4v3h-4z"/><path id="Shape" d="m50 39v-4c0-.5522847-.4477153-1-1-1h-5v6h5c.5522847 0 1-.4477153 1-1z"/><path id="Shape" d="m50 22c0-.5522847-.4477153-1-1-1-.664 0-4.779 0-5 0v6h5c.5522847 0 1-.4477153 1-1z"/><path id="Shape" d="m26.131 0c-.2834878-.00142138-.554257.11754803-.7449539.32731464-.1906969.2097666-.2833988.49061539-.2550461.77268536l.685 6.9h4.33c.0111495.00106286.0221803-.00298178.03-.011l.711-6.889c.0283527-.28206997-.0643492-.56291876-.2550461-.77268536-.1906969-.20976661-.4614661-.32873602-.7449539-.32731464z"/><path id="Rectangle-path" d="m44 42h4v3h-4z"/><path id="Rectangle-path" d="m44 29h4v3h-4z"/><path id="Shape" d="m39.314 5.874-6.599-2.997-.402 3.915 4.435 1.648z"/><path id="Shape" d="m56 51c0-2.209139-1.790861-4-4-4h-8v9h12z"/><path id="Shape" d="m40 56h2v-35.9l-.925-4.626-4.649-5.019-4.426-1.646c-.3264273.72784397-1.0513175 1.1947689-1.849 1.191h-4.3c-.7982561.0040463-1.5238714-.46284067-1.851-1.191l-4.427 1.645-4.649 5.019-.924 4.627v35.9h2v-32c0-6.627417 5.372583-12 12-12s12 5.372583 12 12z"/><path id="Shape" d="m29 14.051v9.949h9c-.0064731-5.1329477-3.8933834-9.4297111-9-9.949z"/><path id="Rectangle-path" d="m18 53h9v3h-9z"/><path id="Rectangle-path" d="m29 26h9v7h-9z"/><path id="Shape" d="m47.572 19-2.112-5.799-2.369 2.158.729 3.641z"/><path id="Shape" d="m45.769 10.217c.320446-.36143376.305575-.90947583-.034-1.253l-2.7-2.7c-.3600784-.34196994-.9249216-.34196994-1.285 0l-3.363 3.363 3.672 3.965z"/><path id="Shape" d="m38 35h-9c-.5522847 0-1 .4477153-1 1v4c0 .5522847.4477153 1 1 1h9zm-3 4h-3c-.5522847 0-1-.4477153-1-1s.4477153-1 1-1h3c.5522847 0 1 .4477153 1 1s-.4477153 1-1 1z"/><path id="Shape" d="m27 14.051c-5.1066166.5192889-8.9935269 4.8160523-9 9.949h9z"/><path id="Shape" d="m27 26h-9v11h8c0-1.155-.117-2.212 1-3.22z"/><path id="Shape" d="m27 42.22c-1.132-1.02-1-2.142-1-3.22h-8v12h9z"/><path id="Rectangle-path" d="m29 43h9v8h-9z"/><path id="Rectangle-path" d="m29 53h9v3h-9z"/></g></svg>