<svg id="Capa_1" enable-background="new 0 0 512 512" height="512" viewBox="0 0 512 512" width="512" xmlns="http://www.w3.org/2000/svg"><path d="m512 359.274v-31.302h-74.811c3.932-18.842 14.98-52.104 45.918-83.042l-21.213-21.213c-10.915 10.915-19.73 22.102-26.857 33.04v-96.599c15.338-6.013 26.232-20.951 26.232-38.395v-31.352c0-17.444-10.895-32.382-26.232-38.395v-23.195h-30v23.195c-15.337 6.013-26.231 20.951-26.231 38.395v31.352c0 17.444 10.894 32.382 26.231 38.395v96.599c-7.127-10.938-15.942-22.124-26.857-33.04l-21.213 21.213c30.667 30.667 41.808 64.092 45.83 83.042h-129.645c3.932-18.842 14.98-52.104 45.918-83.042l-21.213-21.213c-10.915 10.915-19.73 22.102-26.857 33.04v-96.599c15.338-6.013 26.232-20.951 26.232-38.395v-31.352c0-17.444-10.895-32.382-26.232-38.395v-23.195h-30v23.195c-15.338 6.013-26.232 20.951-26.232 38.395v31.352c0 17.444 10.895 32.382 26.232 38.395v96.599c-7.127-10.938-15.942-22.124-26.857-33.04l-21.213 21.213c30.667 30.667 41.808 64.092 45.83 83.042h-129.645c3.932-18.842 14.98-52.104 45.918-83.042l-21.213-21.213c-10.915 10.915-19.73 22.102-26.857 33.04v-96.599c15.337-6.013 26.231-20.951 26.231-38.395v-31.352c0-17.444-10.894-32.382-26.231-38.395v-23.195h-30v23.195c-15.338 6.013-26.233 20.951-26.233 38.395v31.352c0 17.444 10.895 32.382 26.232 38.395v96.599c-7.127-10.938-15.942-22.124-26.857-33.04l-21.212 21.213c30.667 30.667 41.808 64.092 45.83 83.042h-74.723v31.302h62.551v30h-62.551v93.905h512v-93.905h-62.551v-30zm-400.17 0h288.34v30h-288.34zm119.53 92.603h-168.809v-30h168.81v30zm218.089 0h-168.809v-30h168.81v30z"/></svg>