<svg width="126" height="121" viewBox="0 0 126 121" fill="none" xmlns="http://www.w3.org/2000/svg">
<path d="M60.5026 13.5685C61.2627 13.1297 62.1249 12.8986 63.0026 12.8987C63.8803 12.8987 64.7425 13.1297 65.5025 13.5685L102.503 34.93C103.264 35.3688 103.895 36 104.334 36.7601C104.772 37.5202 105.003 38.3824 105.003 39.2601L105.003 81.9845C105.003 82.8622 104.772 83.7244 104.333 84.4845C103.894 85.2446 103.263 85.8757 102.503 86.3146L65.5008 107.678C64.7407 108.116 63.8785 108.347 63.0009 108.347C62.1232 108.347 61.261 108.116 60.5009 107.678L23.5 86.3161C22.74 85.8773 22.1088 85.2461 21.6699 84.486C21.2311 83.7259 21 82.8637 21 81.986L21.0009 39.2615C21.0009 38.3839 21.232 37.5217 21.6708 36.7616C22.1096 36.0015 22.7408 35.3703 23.5008 34.9315L60.5026 13.5685Z" fill="url(#paint0_linear)"/>
<defs>
<linearGradient id="paint0_linear" x1="42.0017" y1="24.25" x2="95.5503" y2="120.991" gradientUnits="userSpaceOnUse">
<stop stop-color="#FFA62E"/>
<stop offset="1" stop-color="#FC4E00"/>
</linearGradient>
</defs>
</svg>
