<svg height="512" viewBox="0 0 64 64" width="512" xmlns="http://www.w3.org/2000/svg"><path d="m35 19.1v22.1a4.976 4.976 0 0 0 1.876 3.9l5 4a5.133 5.133 0 0 0 6.247 0l5-4a4.98 4.98 0 0 0 1.877-3.906v-22.094l-10-2z"/><path d="m59 41.194v-25.374l-14-2.8-14 2.8v25.374a8.96 8.96 0 0 0 3.377 7.028l5 4a8.953 8.953 0 0 0 11.246 0l5-4a8.96 8.96 0 0 0 3.377-7.028zm-4.627 5.466-5 4a7 7 0 0 1 -8.746 0l-5-4a6.968 6.968 0 0 1 -2.627-5.466v-22.915a1 1 0 0 1 .8-.98l11-2.2a.959.959 0 0 1 .392 0l11 2.2a1 1 0 0 1 .8.98v22.915a6.968 6.968 0 0 1 -2.619 5.466z"/><path d="m10 19v37.52l4 3.2 4-3.2v-37.52h-3v13h-2v-13zm5 15v4h-2v-4z"/><path d="m5 16h18v1h-18z"/><path d="m13 4h2v10h-2z"/></svg>