<svg height="511pt" viewBox="0 0 511.83165 511" width="511pt" xmlns="http://www.w3.org/2000/svg"><path d="m178.464844 333.78125-26.957032-26.96875c-1.789062-1.789062-4.214843-2.796875-6.746093-2.796875-2.527344 0-4.953125 1.007813-6.742188 2.796875l-26.960937 26.96875c-1.789063 1.785156-2.792969 4.210938-2.792969 6.738281 0 2.53125 1.003906 4.953125 2.792969 6.742188l26.960937 26.96875 26.96875 26.957031c1.785157 1.789062 4.210938 2.796875 6.738281 2.796875 2.527344 0 4.953126-1.007813 6.738282-2.796875l26.96875-26.957031c1.792968-1.789063 2.796875-4.214844 2.796875-6.746094s-1.003907-4.957031-2.796875-6.742187zm0 0"/><path d="m499.382812.414062c-.757812.0625-1.5.242188-2.203124.53125-25.511719 9.535157-76.183594 36.371094-143.449219 103.636719l-189.707031 189.792969 20.746093 20.746094zm0 0"/><path d="m217.960938 348.222656 189.707031-189.703125c67.265625-67.269531 94.101562-117.9375 103.632812-143.449219.292969-.703124.472657-1.449218.53125-2.207031l-314.617187 314.703125zm0 0"/><path d="m98.613281 359.699219-1.058593 1.058593c-13.417969 13.507813 0 26.925782 13.503906 40.429688 13.507812 13.507812 26.925781 26.925781 40.429687 13.507812l1.0625-1.058593h-.089843zm0 0"/><path d="m98.613281 413.636719c-4.609375-4.414063-8.914062-9.132813-12.890625-14.125l-57.464844 57.457031c-10.355468-5.675781-20.09375-6.824219-25.070312-1.851562-7.441406 7.449218-1.40625 25.554687 13.488281 40.445312 14.890625 14.894531 32.996094 20.933594 40.445313 13.488281 4.972656-4.976562 3.824218-14.714843-1.851563-25.070312l57.289063-57.28125c-4.878906-4.101563-9.53125-8.464844-13.945313-13.0625zm-62.289062 48.628906c-.253907-.203125-.519531-.378906-.777344-.574219.257813.230469.523437.371094.777344.574219zm13.65625 13.648437c.203125.265626.378906.53125.574219.792969-.230469-.261719-.371094-.527343-.574219-.792969zm0 0"/></svg>