<svg id="Layer_1" enable-background="new 0 0 496 496" height="512" viewBox="0 0 496 496" width="512" xmlns="http://www.w3.org/2000/svg"><path d="m496 304.894v56.89c0 58.32-47.45 105.78-105.78 105.78h-54.37c-37.53 0-74.78-9.5-107.72-27.47-35.29-19.25-75.19-29.42-115.38-29.42h-82.82c-16.51 0-29.93-13.43-29.93-29.93 0-42.64 34.69-77.33 77.33-77.33h163.22c34.66 0 62.86-28.2 62.86-62.86 0-2.12-.85-4.15-2.35-5.65l-87.97-87.98c-17.91-17.91-47.04-17.91-64.95 0l-27.43 27.43c-8.67 8.67-13.45 20.2-13.45 32.47v36.44c0 24.662-20.18 44.556-44.91 44.14-23.92-.4-43.39-20.59-43.39-45v-61.72c0-15.59 6.07-30.25 17.1-41.28l75.76-75.76c34.274-34.259 83.747-43.462 126.35-27.85l93.94 34.45c98.03 35.94 163.89 130.24 163.89 234.65z"/></svg>