<svg id="Layer_1" enable-background="new 0 0 496.001 496.001" height="512" viewBox="0 0 496.001 496.001" width="512" xmlns="http://www.w3.org/2000/svg"><path d="m258.706 206.721c.88-3.58 4.09-6.1 7.78-6.1h116.23c17.475 0 31.781-14.302 31.37-32.12-.37-16.9-14.8-30.65-32.16-30.65h-110.2c-17.49 0-34.53 5.77-48.39 16.33v131.22c4.92 1.69 10.06 2.85 15.35 3.42z"/><path d="m207.336 277.511c0-232.649 0-11.74 0-246.13 0-8.38-3.27-16.26-9.19-22.19-19.587-19.587-53.58-5.851-53.58 22.19v80.54l33.34 124.81c4.59 17.18 15.31 31.47 29.43 40.78z"/><path d="m422.986 216.621c-30.322.199-58.92 12.13-80.47 33.66l-25.75 25.76c-51.192 51.165-136.284 32.304-154.31-35.18-46.995-175.9-35.35-132.316-48.4-181.14-3.832-14.304-16.721-23.27-30.26-23.27-20.661 0-35.715 19.57-30.37 39.52 25.055 93.496 51.75 177.217 51.75 309.88 0 60.73 49.42 110.15 110.16 110.15 49.612 0 92.429-33.133 105.96-78.94 13.648-46.16 12.744-43.14 12.86-43.43 8.07-20.98 20.23-39.69 36.12-55.59l67.55-67.54c12.396-12.396 3.921-33.88-14.84-33.88z"/><path d="m285.096 121.851 11.44-42.69c3.78-14.09-4.62-28.63-18.71-32.42-14.299-3.812-28.663 4.755-32.42 18.72l-18.02 67.27c23.117-12.051 41.402-10.88 57.71-10.88z"/></svg>